<svg width="100" height="100" xmlns="http://www.w3.org/2000/svg">
 <!-- Created with Method Draw - http://github.com/duopixel/Method-Draw/ -->
 <g id="Layer_1">
  <title>Layer 1</title>
  <path stroke="#f9f2f2" transform="rotate(90.252685546875 325.7488098144532,255.9839782714844) " id="svg_5" d="m325.74881,272.10576c8.43356,0 15.2696,-7.218 15.2696,-16.12179c0,-8.9038 -6.83604,-16.12179 -15.2696,-16.12179c-8.43315,0 -15.26961,7.21799 -15.26961,16.12179c0,8.90378 6.83646,16.12179 15.26961,16.12179zm2.45316,-26.90815l3.71518,3.92466l-6.50018,6.86255l6.50018,6.86296l-3.71518,3.92337l-10.21501,-10.78633l10.21501,-10.78721l0,0z" opacity="undefined" fill-opacity="null" stroke-opacity="null" stroke-dasharray="null" stroke-width="null" fill="#bf0000"/>
  <path stroke="#f9f2f2" transform="rotate(91.29724884033203 48.545734405517564,54.60455322265625) " id="svg_8" d="m48.54574,71.35487c9.3033,0 16.84434,-7.49941 16.84434,-16.75031c0,-9.25093 -7.54103,-16.75032 -16.84434,-16.75032c-9.30285,0 -16.84435,7.49939 -16.84435,16.75032c0,9.25091 7.5415,16.75031 16.84435,16.75031zm2.70615,-27.9572l4.09832,4.07767l-7.17053,7.13009l7.17053,7.13053l-4.09832,4.07633l-11.26848,-11.20685l11.26848,-11.20777l0,0z" opacity="undefined" fill-opacity="null" stroke-opacity="null" stroke-dasharray="null" stroke-width="null" fill="#bf0000"/>
  <path id="svg_9" d="m25.18176,33.17929c1.38078,0 2.5,-0.22386 2.5,-0.5c0,-0.27614 -1.11922,-0.5 -2.5,-0.5c-1.38071,0 -2.5,0.22386 -2.5,0.5c0,0.27614 1.11929,0.5 2.5,0.5zm0.40164,-0.83453l0.60826,0.12172l-1.06423,0.21283l1.06423,0.21285l-0.60826,0.12168l-1.67244,-0.33453l1.67244,-0.33455l0,0z" opacity="undefined" fill-opacity="null" stroke-opacity="null" stroke-dasharray="null" stroke-width="null" stroke="#f9f2f2" fill="#bf0000"/>
 </g>
</svg>